<?xml version="1.0" encoding="UTF-8" standalone="no"?>
<svg
   xmlns:osb="http://www.openswatchbook.org/uri/2009/osb"
   xmlns:dc="http://purl.org/dc/elements/1.1/"
   xmlns:cc="http://creativecommons.org/ns#"
   xmlns:rdf="http://www.w3.org/1999/02/22-rdf-syntax-ns#"
   xmlns:svg="http://www.w3.org/2000/svg"
   xmlns="http://www.w3.org/2000/svg"
   xmlns:xlink="http://www.w3.org/1999/xlink"
   xmlns:sodipodi="http://sodipodi.sourceforge.net/DTD/sodipodi-0.dtd"
   xmlns:inkscape="http://www.inkscape.org/namespaces/inkscape"
   width="24pt"
   height="24pt"
   viewBox="0 0 23.999999 23.999999"
   version="1.1"
   id="svg1719"
   inkscape:version="1.0.1 (3bc2e813f5, 2020-09-07)"
   sodipodi:docname="sysicon.svg">
  <style></style>
  <defs
     id="defs1713">
    <linearGradient
       id="linearGradient2584"
       osb:paint="solid">
      <stop
         style="stop-color:#000000;stop-opacity:1;"
         offset="0"
         id="stop2582" />
    </linearGradient>
    <linearGradient
       id="linearGradient2578"
       osb:paint="solid">
      <stop
         style="stop-color:#000000;stop-opacity:1;"
         offset="0"
         id="stop2576" />
    </linearGradient>
    <mask
       maskUnits="userSpaceOnUse"
       id="mask2747">
      <a
         id="a2751"
         transform="translate(-17.25,-4.5)">
        <path
           style="fill:none;stroke:#000000;stroke-width:4;stroke-linecap:square;stroke-linejoin:miter;stroke-miterlimit:4;stroke-dasharray:none;stroke-opacity:1"
           sodipodi:type="inkscape:offset"
           inkscape:radius="0"
           inkscape:original="M 7.5 7.5 L 7.5 18.75 L 18.75 18.75 L 18.75 7.5 L 7.5 7.5 z "
           xlink:href="#path2722"
           id="path2749"
           inkscape:href="#path2722"
           d="m 3.75,11.25 v 7.5 h 7.5 v -7.5 z"
           transform="translate(13.5,8.25)" />
      </a>
    </mask>
    <clipPath
       clipPathUnits="userSpaceOnUse"
       id="clipPath2761">
      <path
         style="fill:none;stroke:#000000;stroke-width:2;stroke-linecap:butt;stroke-linejoin:miter;stroke-miterlimit:4;stroke-dasharray:none;stroke-opacity:1"
         d="M 7.5,7.5 V 15 H 15 V 7.5 Z"
         id="path2763" />
    </clipPath>
    <mask
       maskUnits="userSpaceOnUse"
       id="mask2787">
      <path
         style="fill:none;stroke:#000000;stroke-width:0.75px;stroke-linecap:square;stroke-linejoin:miter;stroke-opacity:1"
         d="m 7.5,7.5 h 3.75 V 18.75 H 7.5 V 7.5"
         id="path2789" />
    </mask>
    <clipPath
       clipPathUnits="userSpaceOnUse"
       id="clipPath2811">
      <path
         style="fill:none;stroke:#000000;stroke-width:0.999998;stroke-linecap:butt;stroke-linejoin:miter;stroke-miterlimit:4;stroke-dasharray:none;stroke-opacity:1"
         d="M 3.75,3.75 V 21 h 16.5 V 3 H 3.75 Z"
         id="path2813" />
    </clipPath>
    <mask
       maskUnits="userSpaceOnUse"
       id="mask2831">
      <path
         style="fill:none;stroke:#000000;stroke-width:0.75px;stroke-linecap:butt;stroke-linejoin:miter;stroke-opacity:1"
         d="M 7.5,9.75 V 18 h 3.75 V 9.75 Z"
         id="path2833" />
    </mask>
  </defs>
  <sodipodi:namedview
     id="base"
     pagecolor="#673ab7"
     bordercolor="#666666"
     borderopacity="1.0"
     inkscape:pageopacity="0"
     inkscape:pageshadow="2"
     inkscape:zoom="26.28125"
     inkscape:cx="11.342176"
     inkscape:cy="16.191867"
     inkscape:document-units="pt"
     inkscape:current-layer="layer13"
     inkscape:document-rotation="0"
     showgrid="true"
     units="pt"
     scale-x="1"
     inkscape:window-width="2560"
     inkscape:window-height="1025"
     inkscape:window-x="0"
     inkscape:window-y="27"
     inkscape:window-maximized="1"
     inkscape:snap-global="true"
     inkscape:lockguides="false"
     inkscape:pagecheckerboard="false">
    <inkscape:grid
       type="xygrid"
       id="grid1929"
       empspacing="4"
       dotted="false"
       visible="true" />
  </sodipodi:namedview>
  <metadata
     id="metadata1716">
    <rdf:RDF>
      <cc:Work
         rdf:about="">
        <dc:format>image/svg+xml</dc:format>
        <dc:type
           rdf:resource="http://purl.org/dc/dcmitype/StillImage" />
        <dc:title></dc:title>
      </cc:Work>
    </rdf:RDF>
  </metadata>
  <g
     inkscape:groupmode="layer"
     id="layer4"
     inkscape:label="Clipboard"
     style="display:none;opacity:1"
     sodipodi:insensitive="true">
    <path
       id="path1690"
       style="fill:#000000;fill-opacity:1;stroke:none;stroke-width:0.666667;stroke-linecap:square;stroke-linejoin:miter;stroke-miterlimit:4;stroke-dasharray:none;stroke-opacity:0.379443"
       d="M 15.949219,5 A 3,3 0 0 0 13,8 3,3 0 0 0 16,11 3,3 0 0 0 19,8 3,3 0 0 0 16,5 3,3 0 0 0 15.949219,5 Z M 16,7 a 1,1 0 0 1 1,1 1,1 0 0 1 -1,1 1,1 0 0 1 -1,-1 1,1 0 0 1 1,-1 z"
       transform="scale(0.75)" />
    <path
       id="path1712"
       style="fill:#000000;fill-opacity:1;stroke:none;stroke-width:1px;stroke-linecap:butt;stroke-linejoin:miter;stroke-opacity:1"
       d="M 8.9511719,7 A 2,2 0 0 0 7,9 2,2 0 0 0 7,9.0488281 V 23 a 2,2 0 0 0 2,2 2,2 0 0 0 0.048828,0 H 23 a 2,2 0 0 0 2,-2 2,2 0 0 0 0,-0.04883 V 9 A 2,2 0 0 0 23,7 H 22.951172 16 A 1,1 0 0 1 17,8 1,1 0 0 1 16,9 1,1 0 0 1 15,8 1,1 0 0 1 16,7 H 9 A 2,2 0 0 0 8.9511719,7 Z M 11,11 h 10 v 2 H 11 Z m 0,4 h 10 v 2 H 11 Z m 0,4 h 7 v 2 h -7 z"
       transform="scale(0.75)" />
  </g>
  <g
     inkscape:groupmode="layer"
     id="layer9"
     inkscape:label="Folder add"
     style="display:none;opacity:1">
    <path
       id="rect1805"
       style="opacity:1;fill:#000000;fill-opacity:1;stroke:none;stroke-width:0.133333;stroke-linecap:square;stroke-linejoin:miter;stroke-miterlimit:4;stroke-dasharray:none;stroke-opacity:1"
       d="M 8,8 C 6.892,8 6,8.892 6,10 v 12 c 0,1.108 0.892,2 2,2 h 16 c 1.108,0 2,-0.892 2,-2 V 12 A 2,2 0 0 0 24,10 H 23.951172 16 L 14,8 Z m 10,5 h 2 v 3 h 3 v 2 h -3 v 3 h -2 v -3 h -3 v -2 h 3 z"
       transform="scale(0.75)" />
  </g>
  <g
     inkscape:groupmode="layer"
     id="layer10"
     inkscape:label="Dumbbell old"
     style="display:none;opacity:0.485578">
    <path
       id="rect1857"
       style="opacity:1;fill:#000000;fill-opacity:1;stroke:none;stroke-width:0.133333;stroke-linecap:square;stroke-linejoin:miter;stroke-miterlimit:4;stroke-dasharray:none;stroke-opacity:1"
       d="M 8,8 C 6.892,8 6,8.892 6,10 v 12 c 0,1.108 0.892,2 2,2 h 2 V 22 10 8 Z"
       transform="scale(0.75)" />
    <path
       id="rect1857-3"
       style="opacity:1;fill:#000000;fill-opacity:1;stroke:none;stroke-width:0.133333;stroke-linecap:square;stroke-linejoin:miter;stroke-miterlimit:4;stroke-dasharray:none;stroke-opacity:1"
       d="m 22,8 v 2 12 2 h 2 c 1.108,0 2,-0.892 2,-2 V 10 C 26,8.892 25.108,8 24,8 Z"
       transform="scale(0.75)" />
    <rect
       style="opacity:1;fill:#000000;fill-opacity:1;stroke:none;stroke-width:0.141421;stroke-linecap:square;stroke-linejoin:miter;stroke-miterlimit:4;stroke-dasharray:none;stroke-opacity:1"
       id="rect1874"
       width="9"
       height="3"
       x="7.5"
       y="10.5"
       rx="0"
       ry="3" />
  </g>
  <g
     inkscape:groupmode="layer"
     id="layer11"
     inkscape:label="Dumbbell modular"
     style="display:none;opacity:1">
    <rect
       style="display:inline;opacity:1;fill:#ffffff;fill-opacity:1;stroke:none;stroke-width:0.122474;stroke-linecap:square;stroke-linejoin:miter;stroke-miterlimit:4;stroke-dasharray:none;stroke-opacity:1"
       id="rect1924"
       width="1.5"
       height="4.5"
       x="4.5"
       y="9.75"
       ry="0.75"
       rx="0.75" />
    <rect
       style="display:inline;opacity:1;fill:#ffffff;fill-opacity:1;stroke:none;stroke-width:0.173204;stroke-linecap:square;stroke-linejoin:miter;stroke-miterlimit:4;stroke-dasharray:none;stroke-opacity:1"
       id="rect1924-5"
       width="1.5"
       height="9"
       x="6"
       y="7.5"
       ry="0.75"
       rx="0.75" />
    <rect
       style="display:inline;opacity:1;fill:#ffffff;fill-opacity:1;stroke:none;stroke-width:0.173204;stroke-linecap:square;stroke-linejoin:miter;stroke-miterlimit:4;stroke-dasharray:none;stroke-opacity:1"
       id="rect1924-5-3"
       width="1.5"
       height="9"
       x="16.5"
       y="7.5"
       ry="0.75"
       rx="0.75" />
    <rect
       style="display:inline;opacity:1;fill:#ffffff;fill-opacity:1;stroke:none;stroke-width:0.122474;stroke-linecap:square;stroke-linejoin:miter;stroke-miterlimit:4;stroke-dasharray:none;stroke-opacity:1"
       id="rect1924-56"
       width="1.5"
       height="4.5"
       x="18"
       y="9.75"
       ry="0.75"
       rx="0.75" />
    <rect
       style="display:inline;opacity:1;fill:#ffffff;fill-opacity:1;stroke:none;stroke-width:0.0999997;stroke-linecap:square;stroke-linejoin:miter;stroke-miterlimit:4;stroke-dasharray:none;stroke-opacity:1"
       id="rect1971"
       width="9"
       height="1.5"
       x="7.5"
       y="11.25"
       ry="2.6645399e-15" />
    <rect
       style="display:inline;opacity:1;fill:#ffffff;fill-opacity:1;stroke:none;stroke-width:0.0999997;stroke-linecap:square;stroke-linejoin:miter;stroke-miterlimit:4;stroke-dasharray:none;stroke-opacity:1"
       id="rect1973"
       width="0.75"
       height="4.5"
       x="5.25"
       y="9.75"
       ry="0" />
    <rect
       style="display:inline;opacity:1;fill:#ffffff;fill-opacity:1;stroke:none;stroke-width:0.0999997;stroke-linecap:square;stroke-linejoin:miter;stroke-miterlimit:4;stroke-dasharray:none;stroke-opacity:1"
       id="rect1975"
       width="0.75"
       height="9"
       x="6.75"
       y="7.5" />
    <rect
       style="display:inline;opacity:1;fill:#ffffff;fill-opacity:1;stroke:none;stroke-width:0.0999997;stroke-linecap:square;stroke-linejoin:miter;stroke-miterlimit:4;stroke-dasharray:none;stroke-opacity:1"
       id="rect1977"
       width="0.75"
       height="9"
       x="16.5"
       y="7.5" />
    <rect
       style="display:inline;opacity:1;fill:#ffffff;fill-opacity:1;stroke:none;stroke-width:0.1;stroke-linecap:square;stroke-linejoin:miter;stroke-miterlimit:4;stroke-dasharray:none;stroke-opacity:1"
       id="rect1979"
       width="0.74999964"
       height="4.5"
       x="18"
       y="9.75" />
    <rect
       style="display:inline;opacity:1;fill:#ffffff;fill-opacity:1;stroke:none;stroke-width:0.0999997;stroke-linecap:square;stroke-linejoin:miter;stroke-miterlimit:4;stroke-dasharray:none;stroke-opacity:1"
       id="rect1985"
       width="1.5"
       height="1.5"
       x="9"
       y="9.75"
       ry="0.75" />
    <rect
       style="display:inline;opacity:1;fill:#ffffff;fill-opacity:1;stroke:none;stroke-width:0.0999997;stroke-linecap:square;stroke-linejoin:miter;stroke-miterlimit:4;stroke-dasharray:none;stroke-opacity:1"
       id="rect1987"
       width="1.5"
       height="1.5"
       x="10.5"
       y="9.75"
       ry="0.75" />
    <rect
       style="display:inline;opacity:1;fill:#ffffff;fill-opacity:1;stroke:none;stroke-width:0.0999997;stroke-linecap:square;stroke-linejoin:miter;stroke-miterlimit:4;stroke-dasharray:none;stroke-opacity:1"
       id="rect1989"
       width="1.5"
       height="1.5"
       x="12"
       y="9.75"
       ry="0.75" />
    <rect
       style="display:inline;opacity:1;fill:#ffffff;fill-opacity:1;stroke:none;stroke-width:0.0999997;stroke-linecap:square;stroke-linejoin:miter;stroke-miterlimit:4;stroke-dasharray:none;stroke-opacity:1"
       id="rect1991"
       width="1.5"
       height="1.5"
       x="13.5"
       y="9.75"
       ry="0.75" />
    <rect
       style="display:inline;opacity:1;fill:#ffffff;fill-opacity:1;stroke:none;stroke-width:0.120761;stroke-linecap:square;stroke-linejoin:miter;stroke-miterlimit:4;stroke-dasharray:none;stroke-opacity:1"
       id="rect1993"
       width="5.25"
       height="3.75"
       x="9"
       y="11.25"
       ry="1.5"
       rx="1.3125" />
    <rect
       style="display:inline;opacity:1;fill:#ffffff;fill-opacity:1;stroke:none;stroke-width:0.193648;stroke-linecap:square;stroke-linejoin:miter;stroke-miterlimit:4;stroke-dasharray:none;stroke-opacity:1"
       id="rect1995"
       width="4.5"
       height="3.75"
       x="9.75"
       y="14.25"
       rx="1.7763568e-15"
       ry="2.220446e-15" />
    <rect
       style="display:inline;opacity:1;fill:#ffffff;fill-opacity:1;stroke:none;stroke-width:0;stroke-linecap:butt;stroke-linejoin:miter;stroke-miterlimit:4;stroke-dasharray:none;stroke-opacity:1"
       id="rect2009"
       width="6"
       height="3"
       x="9"
       y="10.5"
       ry="0" />
    <path
       style="display:inline;fill:#ffffff;fill-opacity:1;stroke:none;stroke-width:0.75px;stroke-linecap:butt;stroke-linejoin:miter;stroke-opacity:1"
       d="m 14.25,15 2.25,-3 h -3 v 3"
       id="path2028"
       sodipodi:nodetypes="cccc" />
    <path
       id="rect1991-9"
       style="display:inline;opacity:1;fill:#ffffff;fill-opacity:1;stroke:none;stroke-width:0.133333;stroke-linecap:square;stroke-linejoin:miter;stroke-miterlimit:4;stroke-dasharray:none;stroke-opacity:1"
       d="m 21,15 c -0.554,0 -1,0.446 -1,1 h 2 c 0,-0.554 -0.446,-1 -1,-1 z"
       transform="scale(0.75)" />
  </g>
  <g
     inkscape:groupmode="layer"
     id="layer13"
     inkscape:label="Dumbbell"
     style="display:inline">
    <path
       id="rect1924-3"
       style="display:inline;opacity:1;fill:#ffffff;fill-opacity:1;stroke:none;stroke-width:0.163299;stroke-linecap:square;stroke-linejoin:miter;stroke-miterlimit:4;stroke-dasharray:none;stroke-opacity:1"
       d="m 9,10 c -0.554,0 -1,0.446 -1,1 v 2 H 7 c -0.554,0 -1,0.446 -1,1 v 4 c 0,0.554 0.446,1 1,1 h 1 v 2 c 0,0.554 0.446,1 1,1 h 1 v -1 -4 h 2 v 1 c 0,0.799116 0.409928,1.479981 1,1.800781 V 24 h 6 v -4 l 2.25,-3 H 22 v 4 1 h 1 c 0.554,0 1,-0.446 1,-1 v -2 h 1 c 0.554,0 1,-0.446 1,-1 v -4 c 0,-0.554 -0.446,-1 -1,-1 h -1 v -2 c 0,-0.554 -0.446,-1 -1,-1 h -1 v 5 h -1 -1 v -1 c 0,-0.554 -0.446,-1 -1,-1 -0.554,0 -1,0.446 -1,1 0,-0.554 -0.446,-1 -1,-1 -0.554,0 -1,0.446 -1,1 0,-0.554 -0.446,-1 -1,-1 -0.554,0 -1,0.446 -1,1 0,-0.554 -0.446,-1 -1,-1 -0.554,0 -1,0.446 -1,1 v 1 h -2 v -4 -1 z"
       transform="scale(0.75)" />
  </g>
  <g
     inkscape:groupmode="layer"
     id="layer3"
     inkscape:label="Keyline"
     style="opacity:0.51777799">
    <g
       inkscape:label="border"
       inkscape:groupmode="layer"
       id="layer1"
       style="display:none"
       sodipodi:insensitive="true">
      <path
         style="fill:none;stroke:#ff0000;stroke-width:1.5;stroke-linecap:butt;stroke-linejoin:miter;stroke-miterlimit:4;stroke-dasharray:none;stroke-opacity:0.379443"
         d="m 0.75,0.75 v 22.5 h 22.5 V 0.75 Z"
         id="path2551" />
    </g>
    <g
       inkscape:groupmode="layer"
       id="layer2"
       inkscape:label="Square"
       style="display:none">
      <path
         id="path1774"
         style="fill:none;fill-opacity:1;stroke:#000000;stroke-width:0.133333;stroke-linecap:butt;stroke-linejoin:miter;stroke-miterlimit:4;stroke-dasharray:none;stroke-opacity:1"
         d="M 8.9511719,7 A 2,2 0 0 0 7,9 2,2 0 0 0 7,9.0488281 V 23 a 2,2 0 0 0 2,2 2,2 0 0 0 0.048828,0 H 23 a 2,2 0 0 0 2,-2 2,2 0 0 0 0,-0.04883 V 9 A 2,2 0 0 0 23,7 H 22.951172 9 a 2,2 0 0 0 -0.048828,0 z"
         transform="scale(0.75)" />
    </g>
    <g
       inkscape:groupmode="layer"
       id="layer5"
       inkscape:label="Circle"
       style="display:none">
      <circle
         style="fill:none;fill-opacity:1;stroke:#000000;stroke-width:0.0999997;stroke-linecap:square;stroke-linejoin:miter;stroke-miterlimit:4;stroke-dasharray:none;stroke-opacity:1"
         id="path1791"
         cx="12"
         cy="12"
         r="7.5" />
    </g>
    <g
       inkscape:groupmode="layer"
       id="layer6"
       inkscape:label="V Rect"
       style="display:none">
      <rect
         style="fill:none;fill-opacity:1;stroke:#000000;stroke-width:0.0999997;stroke-linecap:square;stroke-linejoin:miter;stroke-miterlimit:4;stroke-dasharray:none;stroke-opacity:1"
         id="rect1794"
         width="12"
         height="15"
         x="6"
         y="4.5"
         rx="1.5" />
    </g>
    <g
       inkscape:groupmode="layer"
       id="layer7"
       inkscape:label="H Rect"
       style="display:none">
      <rect
         style="fill:none;fill-opacity:1;stroke:#000000;stroke-width:0.0999997;stroke-linecap:square;stroke-linejoin:miter;stroke-miterlimit:4;stroke-dasharray:none;stroke-opacity:1"
         id="rect1797"
         width="15"
         height="12"
         x="4.5"
         y="6"
         rx="1.5" />
    </g>
    <g
       inkscape:groupmode="layer"
       id="layer8"
       inkscape:label="Cross"
       style="display:none">
      <path
         style="fill:none;stroke:#000000;stroke-width:0.1;stroke-linecap:butt;stroke-linejoin:miter;stroke-miterlimit:4;stroke-dasharray:none;stroke-opacity:1"
         d="M 0,0 24,24"
         id="path1800" />
      <path
         style="fill:none;stroke:#000000;stroke-width:0.1;stroke-linecap:butt;stroke-linejoin:miter;stroke-miterlimit:4;stroke-dasharray:none;stroke-opacity:1"
         d="M 0,24 24,0"
         id="path1802" />
    </g>
  </g>
</svg>
